<svg xmlns="http://www.w3.org/2000/svg" viewBox="0 0 1220.29 663.89"><defs><style>.cls-1{fill:#49a05c;}.cls-2{fill:#36854b;}.cls-3{fill:#736357;}.cls-4{fill:#f3b168;}.cls-5{fill:#e59951;}.cls-6{fill:#f2b77c;}.cls-7{fill:#96cfe0;}.cls-8{fill:#97cb64;}.cls-9{fill:#f09959;}.cls-10{fill:#a86b48;}.cls-11{fill:#2e5b9a;}.cls-12{fill:#3e6bab;}.cls-13{fill:#f0ceb4;}.cls-14{fill:#f7a96f;}.cls-15{fill:#333;}.cls-16{fill:#62b570;}.cls-17{fill:#fff;}.cls-18{fill:#9cd499;}</style></defs><title>Asset 2v hue</title><g id="Layer_2" data-name="Layer 2"><g id="Слой_1" data-name="Слой 1"><path class="cls-1" d="M732.83,349c-29.15,59.17-65.69,220.84-75.66,229.7s-67.55,43.19-77.51,59.8-5.54,11.07-1.11,12.18,254.69,2.21,254.69,2.21-28.79-171.64-32.11-172.75S732.83,349,732.83,349Z"/><path class="cls-2" d="M691.39,652.13c46,.32,94.46.58,121.16.71L776,434.21C756.5,396.41,732.83,349,732.83,349c-3.68,7.46-7.47,16.55-11.31,26.75C717.73,540,741.38,586,723.61,615.28,709.75,638.12,697.1,648.33,691.39,652.13Z"/><path class="cls-2" d="M1211,663.89H9.27a9.27,9.27,0,1,1,0-18.54H1211a9.27,9.27,0,0,1,0,18.54Z"/><path class="cls-1" d="M886.31,277.63c41.56,38.37,134.09,74.75,134.09,74.75s14.06,129.89,4.46,203.43-4.26,88.46-4.26,88.46H829.82s-25.61-35.53-72.48-146C727.5,427.91,732.83,349,732.83,349L849,296.81Z"/><path class="cls-2" d="M829.82,644.27H1020.6s-5.33-14.92,4.26-88.46c7.9-60.56-.23-159.31-3.35-192.3l-17.35-7.43c-43.56,12.55-68.66,77.52-76,141-4.94,42.48-75.32,84.3-121.36,107.33C821.88,633.25,829.82,644.27,829.82,644.27Z"/><path class="cls-3" d="M783.05,144.31c-23,51.23,4.6,98.67,3.76,96.67s34.81-86.48,34.81-86.48Z"/><path class="cls-4" d="M870.19,182.19,899.36,288.8a9.67,9.67,0,0,1-1.84,8.63c-6.85,8.43-16.59,25.77-36.24,31.33A48.5,48.5,0,0,1,849,330.14a8.33,8.33,0,0,1-8.22-6.74L821.19,222.29Z"/><path class="cls-5" d="M864.63,191.1,854,195.47l-32.77,26.82,17.59,89.64C868.62,293.33,873,280.78,864.63,191.1Z"/><path class="cls-6" d="M869.12,229.35c-6.45,35.07-32.7,58.79-58.61,53s-38.28-28.52-35.24-74c2.39-35.7,20-74.51,45.91-68.7S875.58,194.28,869.12,229.35Z"/><path class="cls-1" d="M1020.4,352.38c38.6,8.72,45.77,87.12,58.32,169.81,1.45,9.52,8.86,90.07,8.86,90.07a24.65,24.65,0,0,1-14,22.15c-12.61,6.31-17.71,11.07-90.8,11.81-70.2.71-160.7-2.21-160.7-2.21s-.8-26.12,6.39-38.89c10.83-19.19,121.82-46.75,132.16-48.23,1.47-20.67-10.19-95.47,5.9-146.18,11.08-34.88,23-53.16,37.9-57.93A30,30,0,0,1,1020.4,352.38Z"/><path class="cls-2" d="M861.74,645.6c34.6.52,82.09,1,121,.62,73.09-.74,78.19-5.5,90.8-11.81,14.77-7.38,15.51-19.93,15.51-19.93s-7.46-85.72-8.86-95.24c-8.12-55.37-16.9-118.74-37.32-149.32,19.2,56.27,22.29,103.74,22.63,124,.18,10.27-.77,24.33-3.77,34.16-3.32,10.89-11.81,17.72-25.1,14-26.58-7.38-59.8,8.13-59.8,8.13s25.1-8.86,48.73-.74,72.35,62,19.19,82C1028.49,637.56,931.07,642.53,861.74,645.6Z"/><path class="cls-7" d="M834.35,607.58s9.84-16.73,30-16.73,18.7,33,15.75,43.81S865.36,646,865.36,646l-43.31-2Z"/><rect class="cls-8" x="509.91" y="636.37" width="288.02" height="17.13" rx="7.49"/><path class="cls-9" d="M828.94,609.55c-42.33-15.25-53.44-9.51-63-12.3-23.63-6.89-29.53-1-44.79,40.85-3,8.34,5.9,8.86,14.76,8.86s19.69-17.23,23.14-19.2,12.79-3,12.79-3-3,0-7.38,8.86-9.84,12.31-3,12.31,7.87-11.32,20.67-8.86,7.87,8.86,39.87,8.36,56.13,0,55.61-19.19c-.49-18.21,1.53-27.32-15.75-30.52C848.62,593.31,828.94,609.55,828.94,609.55Z"/><path class="cls-10" d="M829.49,609.55c28.3-3.2,20,32.06,17,35s15.76,1,15.76,1,8.79-14.14,1.41-30.39-22.15-17-22.15-17L829,605.12Z"/><path class="cls-11" d="M859,606.49c-.37,4.36-7.79,7.31-16.58,6.58s-15.63-4.88-15.26-9.25,7.79-7.31,16.58-6.58S859.41,602.12,859,606.49Z"/><path class="cls-12" d="M856.79,604.31c-.33,3.91-7,6.54-14.82,5.88s-14-4.35-13.63-8.25,7-6.54,14.82-5.88S857.12,600.41,856.79,604.31Z"/><path class="cls-13" d="M851.88,602.5c-.23,2.81-5,4.71-10.66,4.24s-10.05-3.14-9.82-6,5-4.7,10.67-4.23S852.12,599.69,851.88,602.5Z"/><path class="cls-2" d="M507.41,599.41H232.35a30.09,30.09,0,0,1-29.48-24.91L167,376.48c-3.38-18.67,10.76-35.89,29.49-35.89H471.54A30.11,30.11,0,0,1,501,365.5l35.87,198C540.28,582.19,526.14,599.41,507.41,599.41Z"/><path class="cls-1" d="M520.26,564.26,483.65,370.34C481,356.21,468.32,346,453.55,346H174a30.89,30.89,0,0,0-7,25.85L204.15,574a31,31,0,0,0,30.52,25.43h255.5C509.28,599.41,523.72,582.55,520.26,564.26Z"/><path class="cls-2" d="M453.94,625.92H401.72c-9.31,0-16.86-8.29-16.86-18.52V511.93c0-16.28-12-29.48-26.84-29.48H330.75c-14.82,0-26.84,13.2-26.84,29.48V618.84c0,18.29,13.55,33.08,30.19,33l142.5-1C476.6,637.07,466.46,625.92,453.94,625.92Z"/><path class="cls-1" d="M306,514.07V619.35a32.45,32.45,0,0,0,30.09,32.36l139.08-.87c0-2.28-11-6.43-24.52-6.43H394.15a18.24,18.24,0,0,1-18.24-18.24V514.07a29,29,0,0,0-29-29H335A29,29,0,0,0,306,514.07Z"/><path class="cls-9" d="M597.09,613.79c21-11.68,46.71-7.78,56,3.89S664,637.14,643,637.14s-63,1.56-70.06.78S597.09,613.79,597.09,613.79Z"/><path class="cls-9" d="M628.23,606.79c22.58-5.45,38,7.68,56.83,20.23,16.34,10.9,19.63,21.5,1.55,12.46-26.46-13.23-42-14.79-42-14.79Z"/><path class="cls-9" d="M607.67,613.72c-11.4,0-21.35-3.64-29.4-3s-33.53,26.83-29.51,28.84a8,8,0,0,0,.94.4A13.73,13.73,0,0,0,566,634.28c3.61-5.79,9.47-12.52,16.3-10.11a72.53,72.53,0,0,0,23.37,3.63Z"/><path class="cls-14" d="M601,641.81c-11.68-4.67,7-43.59,13.23-43.59s29.58,18.69,29.58,18.69-5.49,3.09-24.13-3.12c-4.67-1.56-8.56,24.91-14,28S601,641.81,601,641.81Z"/><path class="cls-15" d="M775.25,228.8c-1.08,42.86,13.52,50.11,23.74,55.93s54.21-3.8,60.67-14.4c16.52-27.12,2.62-52.4,6.31-52s7.08,10.94,16.72,24.64c.89,1.28,7.15,9.74,7.48,6.93,4.48-38.38,24.46-50.3,19.7-89.12-3.51-28.62-21.67-26.35-21.67-26.35s-11.72-23.94-48.2-21.22C815.56,115,793.77,124.53,768.58,131s29.8,63.59,62.48,42.72,16.55,25.1,21.7,28.66,2.48.47,4.85,24-27.5,38.87-36.06,40.88c-27.37,6.44-31.95,1.93-37.94-8.38C778.41,250,775.25,228.8,775.25,228.8Z"/><path class="cls-9" d="M888.54,215.53c-3.14,10.8-10.81,17.78-17.14,15.59s-6.51-11-5.77-23.54c.67-11.32,10.81-17.77,17.14-15.58S891.68,204.73,888.54,215.53Z"/><rect class="cls-16" x="52.23" y="76.78" width="242.86" height="109.75" rx="4.6"/><rect class="cls-17" x="58.87" y="105.61" width="229.58" height="75.77" rx="3.72"/><rect class="cls-17" x="62.25" y="84.85" width="9.51" height="8.56" rx="2.06"/><rect class="cls-17" x="79.54" y="84.85" width="9.51" height="8.56" rx="2.06"/><rect class="cls-17" x="96.84" y="84.85" width="9.51" height="8.56" rx="2.06"/><path class="cls-16" d="M279.11,122.22H157.67a3.64,3.64,0,0,1,0-7.27H279.11a3.64,3.64,0,0,1,0,7.27Z"/><path class="cls-16" d="M187.77,178.26H66.34a3.63,3.63,0,0,1,0-7.26H187.77a3.63,3.63,0,1,1,0,7.26Z"/><rect class="cls-16" x="196.34" y="171" width="15.05" height="7.27" rx="1.24"/><rect class="cls-16" x="215.28" y="171" width="15.05" height="7.27" rx="1.24"/><path class="cls-16" d="M280.28,138.05H79.18a2.47,2.47,0,0,1,0-4.93h201.1a2.47,2.47,0,0,1,0,4.93Z"/><path class="cls-16" d="M280.28,148.68H79.18a2.47,2.47,0,0,1,0-4.93h201.1a2.47,2.47,0,0,1,0,4.93Z"/><path class="cls-16" d="M111.71,153.84H345.36a4.6,4.6,0,0,1,4.6,4.6V259a4.61,4.61,0,0,1-4.61,4.61H111.71a4.61,4.61,0,0,1-4.61-4.61V158.44A4.61,4.61,0,0,1,111.71,153.84Z"/><rect class="cls-17" x="113.75" y="182.67" width="229.58" height="75.77" rx="3.72"/><rect class="cls-17" x="117.12" y="161.91" width="9.51" height="8.56" rx="2.06"/><rect class="cls-17" x="134.42" y="161.91" width="9.51" height="8.56" rx="2.06"/><rect class="cls-17" x="151.72" y="161.91" width="9.52" height="8.56" rx="2.06"/><path class="cls-16" d="M334,199.28H212.55a3.64,3.64,0,0,1,0-7.27H334a3.64,3.64,0,0,1,0,7.27Z"/><path class="cls-16" d="M242.65,255.33H121.22a3.64,3.64,0,1,1,0-7.27H242.65a3.64,3.64,0,0,1,0,7.27Z"/><rect class="cls-16" x="251.21" y="248.06" width="15.05" height="7.27" rx="1.24"/><rect class="cls-16" x="270.16" y="248.06" width="15.05" height="7.27" rx="1.24"/><path class="cls-16" d="M335.15,215.11H134.06a2.47,2.47,0,1,1,0-4.93H335.15a2.47,2.47,0,1,1,0,4.93Z"/><path class="cls-16" d="M335.15,225.75H134.06a2.47,2.47,0,1,1,0-4.93H335.15a2.47,2.47,0,1,1,0,4.93Z"/><path class="cls-18" d="M436.37,236.74a31.53,31.53,0,1,1-31.53-31.53A31.53,31.53,0,0,1,436.37,236.74Z"/><path class="cls-17" d="M401.71,248.38h-.08a2.42,2.42,0,0,1-1.72-.81l-8.56-9.73a2.4,2.4,0,1,1,3.6-3.17l6.89,7.83,16.49-16.13a2.4,2.4,0,0,1,3.36,3.43l-18.3,17.9A2.39,2.39,0,0,1,401.71,248.38Z"/><rect class="cls-16" x="428.57" width="219.13" height="90.3" rx="9.34"/><path class="cls-16" d="M455,76.67v49.82l57.41-57.4S456.2,76.67,455,76.67Z"/><rect class="cls-17" x="439.9" y="9.64" width="196.46" height="72.39" rx="7.92"/><path class="cls-16" d="M546.89,26.86H458.15a3.9,3.9,0,0,1,0-7.79h88.74a3.9,3.9,0,0,1,0,7.79Z"/><rect class="cls-16" x="454.26" y="37.36" width="168.92" height="4.37" rx="2.16"/><rect class="cls-16" x="454.26" y="45.84" width="168.92" height="4.37" rx="2.16"/><rect class="cls-16" x="579.54" y="69.67" width="9.51" height="8.56" rx="2.06"/><rect class="cls-16" x="596.84" y="69.67" width="9.51" height="8.56" rx="2.06"/><rect class="cls-16" x="614.14" y="69.67" width="9.51" height="8.56" rx="2.06"/></g></g></svg>